<svg width="22" height="22" viewBox="0 0 22 22" fill="none" xmlns="http://www.w3.org/2000/svg">
<path d="M21.8645 20.5684L15.474 14.1779C16.6861 12.6815 17.4157 10.7791 17.4157 8.70787C17.4157 3.90638 13.5093 0 8.70783 0C3.90633 0 0 3.90638 0 8.70787C0 13.5094 3.90638 17.4157 8.70787 17.4157C10.7791 17.4157 12.6815 16.6861 14.1779 15.4741L20.5684 21.8645C20.7474 22.0435 21.0375 22.0435 21.2166 21.8645L21.8645 21.2165C22.0435 21.0375 22.0435 20.7473 21.8645 20.5684ZM8.70787 15.5825C4.91699 15.5825 1.83325 12.4988 1.83325 8.70787C1.83325 4.91699 4.91699 1.83325 8.70787 1.83325C12.4988 1.83325 15.5825 4.91699 15.5825 8.70787C15.5825 12.4988 12.4988 15.5825 8.70787 15.5825Z" fill="#F5F5F5"/>
</svg>
